<svg width="36" height="36" viewBox="0 0 36 36" fill="none" xmlns="http://www.w3.org/2000/svg">
<path d="M28 30H6V8H19.22L21.22 6H6C5.46957 6 4.96086 6.21071 4.58579 6.58579C4.21071 6.96086 4 7.46957 4 8V30C4 30.5304 4.21071 31.0391 4.58579 31.4142C4.96086 31.7893 5.46957 32 6 32H28C28.5304 32 29.0391 31.7893 29.4142 31.4142C29.7893 31.0391 30 30.5304 30 30V15L28 17V30Z" fill="#FF3F01"/>
<path d="M33.53 5.83994L30.16 2.46994C30.0104 2.31997 29.8327 2.20099 29.6371 2.1198C29.4415 2.03862 29.2318 1.99683 29.02 1.99683C28.8082 1.99683 28.5984 2.03862 28.4028 2.1198C28.2072 2.20099 28.0295 2.31997 27.88 2.46994L14.17 16.2599L13.06 21.0699C13.0127 21.3031 13.0176 21.5438 13.0745 21.7749C13.1314 22.0059 13.2388 22.2214 13.3889 22.4059C13.539 22.5905 13.7282 22.7395 13.9428 22.8422C14.1574 22.9449 14.3921 22.9988 14.63 22.9999C14.7529 23.0135 14.877 23.0135 15 22.9999L19.85 21.9299L33.53 8.11994C33.6799 7.97039 33.7989 7.7927 33.8801 7.59708C33.9613 7.40146 34.0031 7.19174 34.0031 6.97994C34.0031 6.76815 33.9613 6.55843 33.8801 6.36281C33.7989 6.16718 33.6799 5.9895 33.53 5.83994ZM18.81 20.0799L15.15 20.8899L16 17.2599L26.32 6.86994L29.14 9.68994L18.81 20.0799ZM30.27 8.55995L27.45 5.73994L29 4.15994L31.84 6.99994L30.27 8.55995Z" fill="#FF3F01"/>
</svg>
