<svg width="36" height="36" viewBox="0 0 36 36" fill="none" xmlns="http://www.w3.org/2000/svg">
<path d="M22.5 3.375C16.9369 3.375 12.375 7.93687 12.375 13.5C12.375 14.085 12.4706 14.6002 12.5505 15.1178L3.69 23.94L3.375 24.2932V32.625H11.25V29.25H14.625V25.875H18V22.5338C19.3275 23.1863 20.8744 23.625 22.5 23.625C28.0631 23.625 32.625 19.0631 32.625 13.5C32.625 7.93687 28.0631 3.375 22.5 3.375ZM22.5 5.625C26.8369 5.625 30.375 9.16313 30.375 13.5C30.375 17.8369 26.8369 21.375 22.5 21.375C21.162 21.3609 19.8474 21.0231 18.6683 20.3906L18.387 20.25H15.75V23.625H12.375V27H9V30.375H5.625V25.2416L14.5192 16.3125L14.9411 15.9255L14.8376 15.3293C14.7251 14.6543 14.6261 14.0501 14.6261 13.5C14.6261 9.16313 18.1642 5.625 22.5011 5.625H22.5ZM24.75 9C24.4504 8.99322 24.1524 9.04638 23.8736 9.15634C23.5948 9.26631 23.3408 9.43086 23.1264 9.64035C22.9121 9.84984 22.7418 10.1 22.6255 10.3763C22.5092 10.6525 22.4492 10.9492 22.4491 11.2489C22.4491 11.5486 22.5089 11.8453 22.625 12.1216C22.7412 12.3978 22.9114 12.6481 23.1256 12.8577C23.3399 13.0673 23.5938 13.232 23.8726 13.3421C24.1513 13.4522 24.4492 13.5055 24.7489 13.4989C25.3368 13.4859 25.8962 13.2432 26.3074 12.8229C26.7186 12.4026 26.949 11.838 26.9491 11.25C26.9493 10.662 26.7192 10.0972 26.3082 9.67672C25.8972 9.2562 25.3379 9.01329 24.75 9Z" fill="#FF3F01"/>
</svg>
