<svg width="36" height="36" viewBox="0 0 36 36" fill="none" xmlns="http://www.w3.org/2000/svg">
<path d="M18 7.335L21.105 13.6125L21.6225 14.7375L22.7475 14.9062L29.6775 15.9075L24.75 20.745L23.9063 21.5662L24.1088 22.6912L25.29 29.5875L19.0913 26.3363L18 25.875L16.9538 26.4263L10.755 29.6325L11.88 22.7362L12.0825 21.6112L11.25 20.745L6.27753 15.8512L13.2075 14.85L14.3325 14.6813L14.85 13.5563L18 7.335ZM18 2.25L12.8813 12.6225L1.44003 14.2762L9.72003 22.3538L7.76253 33.75L18 28.3725L28.2375 33.75L26.28 22.3538L34.56 14.2875L23.1188 12.6225L18 2.25Z" fill="#FF3F01"/>
</svg>
